<svg xmlns="http://www.w3.org/2000/svg" xmlns:xlink="http://www.w3.org/1999/xlink" xml:space="preserve" width="100px" height="100px" style="shape-rendering:geometricPrecision; text-rendering:geometricPrecision; image-rendering:optimizeQuality; fill-rule:evenodd; clip-rule:evenodd" viewBox="0 0 100 100">
 <defs>
  <style type="text/css">
   
    .fil0 {fill:black}
   
  </style>
 </defs>
 <g id="Layer_x0020_1">
  <metadata id="CorelCorpID_0Corel-Layer"/>
  <path class="fil0" d="M3.73468 71.371c51.3016,-10.5804 19.9419,-37.3834 56.1158,-34.0833l7.25557 12.28c5.90556,-2.38466 10.2851,3.82208 4.67366,7.91109 5.9965,-2.95042 9.49496,3.49727 3.91893,6.63194 4.46696,-2.14254 6.98037,5.77209 4.27326,7.23077 -14.0245,10.6335 -24.6864,14.7698 -42.3913,11.6493 -7.0347,4.90043 -14.5182,8.22762 -22.3832,10.2166l-11.4627 -21.8364zm51.3134 -21.9569c3.88822,2.11773 5.08823,6.38627 4.56854,12.0296l4.93232 8.30676c1.59923,2.69293 0.703943,6.2032 -1.98781,7.80242l-0.00118111 0c-2.69293,1.59923 -6.2032,0.705124 -7.80242,-1.98781l-5.09768 -8.58668c-1.59923,-2.69293 -0.705124,-6.2032 1.98781,-7.80242l0.00118111 0c1.06182,-0.630714 2.2512,-0.872842 3.39924,-0.770085l0 -8.9918z"/>
  <path class="fil0" d="M55.1272 34.9869c3.85161,-0.799613 7.72683,1.59332 11.4946,5.09886 0.218506,-0.348428 0.513784,-0.655517 0.881109,-0.89292l8.59613 -5.54296c1.34292,-0.864574 3.14766,-0.474807 4.01224,0.866936l2.45435 3.80554c0.864574,1.34174 0.474807,3.14766 -0.866936,4.01224l-8.08943 5.21579c0.550398,0.628351 1.09725,1.25316 1.6382,1.86379 2.84175,3.12758 13.5367,-6.40163 10.4505,-14.4273l-1.52245 -3.80672c2.07403,-1.96065 0.868117,-6.62486 -2.55002,-6.37328l-0.47835 -1.19529 15.1194 -8.17565 -4.67366 -8.64338 -14.119 7.63471 -0.51024 -1.27678c-10.5426,1.6134 -17.0033,6.08863 -19.9584,13.0241l-6.40163 0 0 4.36775 5.06106 0c-0.285829,1.4067 -0.464177,2.88782 -0.537406,4.44452zm25.8994 -6.75242l-0.94607 -1.84253 -12.0367 6.18076 0.94607 1.84253 12.0367 -6.18076zm-4.80949 -9.2859l-0.94607 -1.84253 -12.0367 6.18076 0.94607 1.84253 12.0367 -6.18076zm2.40474 4.64295l-0.94607 -1.84253 -12.0367 6.18076 0.94607 1.84253 12.0367 -6.18076z"/>
  <ellipse class="fil0" transform="matrix(0.33706 -0.214046 0.214046 0.33706 75.1313 40.5422)" rx="13.7659" ry="8.93629"/>
  <rect class="fil0" transform="matrix(-0.144906 -0.244035 0.244035 -0.144906 57.4589 76.0195)" width="47.6567" height="25.3915" rx="3.60357" ry="3.60357"/>
 </g>
</svg>